<svg width="38" height="38" viewBox="0 0 38 38" fill="none" xmlns="http://www.w3.org/2000/svg">
<rect width="38" height="38" rx="19" fill="#AE002F"/>
<path d="M26.8454 27.0532C26.2335 27.0532 25.6677 26.5568 25.4484 26.2797C23.832 24.1783 22.5388 18.3246 20.3105 18.1745C22.4003 17.7819 23.9012 16.3618 23.9012 14.2489C23.9012 12.3784 22.8506 10 18.3938 10H11.0969V10.9352C11.7088 10.9352 12.4824 11.2239 12.4824 12.6555V23.7049C12.4824 25.1366 11.7088 25.4253 11.0969 25.4253V26.3605H16.9506V25.4253C16.3387 25.4253 15.5651 25.1366 15.5651 23.7049V18.3823H17.0892C19.4099 18.3823 20.1142 23.9359 22.0423 26.5221C22.7351 27.4458 23.9012 28 25.1828 28H26.9032V27.0648C26.8916 27.0532 26.8454 27.0532 26.8454 27.0532ZM17.0892 17.3663C17.0545 17.3663 15.5651 17.3663 15.5651 17.3663V11.628C15.5651 11.628 16.9044 11.6395 17.3201 11.6395C19.9525 11.6395 20.4837 13.0019 20.4837 14.4913C20.4837 15.7729 19.9641 17.3201 17.0892 17.3663Z" fill="white"/>
</svg>
